<svg width="1259" height="701" viewBox="0 0 1259 701" fill="none" xmlns="http://www.w3.org/2000/svg">
<path d="M487.86 348.64H451.18L445.3 366H420.24L455.8 267.72H483.52L519.08 366H493.74L487.86 348.64ZM481.7 330.16L469.52 294.18L457.48 330.16H481.7ZM596.823 366L576.383 328.9H570.643V366H546.703V267.72H586.883C594.629 267.72 601.209 269.073 606.623 271.78C612.129 274.487 616.236 278.22 618.943 282.98C621.649 287.647 623.003 292.873 623.003 298.66C623.003 305.193 621.136 311.027 617.403 316.16C613.763 321.293 608.349 324.933 601.163 327.08L623.843 366H596.823ZM570.643 311.96H585.483C589.869 311.96 593.136 310.887 595.283 308.74C597.523 306.593 598.643 303.56 598.643 299.64C598.643 295.907 597.523 292.967 595.283 290.82C593.136 288.673 589.869 287.6 585.483 287.6H570.643V311.96ZM691.651 267.72C702.011 267.72 711.064 269.773 718.811 273.88C726.557 277.987 732.531 283.773 736.731 291.24C741.024 298.613 743.171 307.153 743.171 316.86C743.171 326.473 741.024 335.013 736.731 342.48C732.531 349.947 726.511 355.733 718.671 359.84C710.924 363.947 701.917 366 691.651 366H654.831V267.72H691.651ZM690.111 345.28C699.164 345.28 706.211 342.807 711.251 337.86C716.291 332.913 718.811 325.913 718.811 316.86C718.811 307.807 716.291 300.76 711.251 295.72C706.211 290.68 699.164 288.16 690.111 288.16H678.771V345.28H690.111ZM834.53 348.64H797.85L791.97 366H766.91L802.47 267.72H830.19L865.75 366H840.41L834.53 348.64ZM828.37 330.16L816.19 294.18L804.15 330.16H828.37ZM954.552 348.64H917.872L911.992 366H886.932L922.492 267.72H950.212L985.772 366H960.432L954.552 348.64ZM948.392 330.16L936.212 294.18L924.172 330.16H948.392ZM1048.95 366.98C1041.77 366.98 1035.33 365.813 1029.63 363.48C1023.94 361.147 1019.37 357.693 1015.91 353.12C1012.55 348.547 1010.78 343.04 1010.59 336.6H1036.07C1036.45 340.24 1037.71 343.04 1039.85 345C1042 346.867 1044.8 347.8 1048.25 347.8C1051.8 347.8 1054.6 347.007 1056.65 345.42C1058.71 343.74 1059.73 341.453 1059.73 338.56C1059.73 336.133 1058.89 334.127 1057.21 332.54C1055.63 330.953 1053.62 329.647 1051.19 328.62C1048.86 327.593 1045.5 326.427 1041.11 325.12C1034.77 323.16 1029.59 321.2 1025.57 319.24C1021.56 317.28 1018.11 314.387 1015.21 310.56C1012.32 306.733 1010.87 301.74 1010.87 295.58C1010.87 286.433 1014.19 279.293 1020.81 274.16C1027.44 268.933 1036.07 266.32 1046.71 266.32C1057.54 266.32 1066.27 268.933 1072.89 274.16C1079.52 279.293 1083.07 286.48 1083.53 295.72H1057.63C1057.45 292.547 1056.28 290.073 1054.13 288.3C1051.99 286.433 1049.23 285.5 1045.87 285.5C1042.98 285.5 1040.65 286.293 1038.87 287.88C1037.1 289.373 1036.21 291.567 1036.21 294.46C1036.21 297.633 1037.71 300.107 1040.69 301.88C1043.68 303.653 1048.35 305.567 1054.69 307.62C1061.04 309.767 1066.17 311.82 1070.09 313.78C1074.11 315.74 1077.56 318.587 1080.45 322.32C1083.35 326.053 1084.79 330.86 1084.79 336.74C1084.79 342.34 1083.35 347.427 1080.45 352C1077.65 356.573 1073.55 360.213 1068.13 362.92C1062.72 365.627 1056.33 366.98 1048.95 366.98Z" fill="#1F253D"/>
<path d="M852.715 436.85C852.715 433.485 853.466 430.48 854.969 427.834C856.504 425.155 858.579 423.081 861.192 421.611C863.838 420.108 866.794 419.357 870.061 419.357C873.883 419.357 877.231 420.337 880.106 422.297C882.981 424.257 884.99 426.968 886.133 430.431H878.244C877.46 428.798 876.349 427.573 874.912 426.756C873.507 425.939 871.874 425.531 870.012 425.531C868.019 425.531 866.239 426.005 864.671 426.952C863.136 427.867 861.927 429.173 861.045 430.872C860.196 432.571 859.771 434.563 859.771 436.85C859.771 439.104 860.196 441.097 861.045 442.828C861.927 444.527 863.136 445.85 864.671 446.797C866.239 447.712 868.019 448.169 870.012 448.169C871.874 448.169 873.507 447.761 874.912 446.944C876.349 446.095 877.46 444.853 878.244 443.22H886.133C884.99 446.715 882.981 449.443 880.106 451.403C877.264 453.33 873.916 454.294 870.061 454.294C866.794 454.294 863.838 453.559 861.192 452.089C858.579 450.586 856.504 448.512 854.969 445.866C853.466 443.22 852.715 440.215 852.715 436.85ZM922.764 447.483H909.142L906.888 454H899.685L911.984 419.749H919.971L932.27 454H925.018L922.764 447.483ZM920.902 441.995L915.953 427.687L911.004 441.995H920.902ZM966.072 436.458C967.999 436.817 969.583 437.781 970.825 439.349C972.066 440.917 972.687 442.714 972.687 444.739C972.687 446.568 972.229 448.185 971.315 449.59C970.433 450.962 969.142 452.04 967.444 452.824C965.745 453.608 963.736 454 961.417 454H946.668V419.798H960.78C963.099 419.798 965.092 420.174 966.758 420.925C968.456 421.676 969.73 422.722 970.58 424.061C971.462 425.4 971.903 426.919 971.903 428.618C971.903 430.611 971.364 432.277 970.286 433.616C969.24 434.955 967.836 435.903 966.072 436.458ZM953.528 433.91H959.8C961.433 433.91 962.691 433.551 963.573 432.832C964.455 432.081 964.896 431.019 964.896 429.647C964.896 428.275 964.455 427.213 963.573 426.462C962.691 425.711 961.433 425.335 959.8 425.335H953.528V433.91ZM960.437 448.414C962.103 448.414 963.393 448.022 964.308 447.238C965.255 446.454 965.729 445.343 965.729 443.906C965.729 442.436 965.239 441.293 964.259 440.476C963.279 439.627 961.956 439.202 960.29 439.202H953.528V448.414H960.437ZM994.814 448.561H1006.08V454H987.954V419.798H994.814V448.561ZM1027.1 425.335V433.91H1038.62V439.349H1027.1V448.414H1040.09V454H1020.24V419.749H1040.09V425.335H1027.1ZM1067.93 454.343C1065.55 454.343 1063.39 453.935 1061.46 453.118C1059.57 452.301 1058.07 451.125 1056.96 449.59C1055.85 448.055 1055.27 446.242 1055.24 444.151H1062.59C1062.69 445.556 1063.18 446.666 1064.06 447.483C1064.98 448.3 1066.22 448.708 1067.79 448.708C1069.39 448.708 1070.64 448.332 1071.56 447.581C1072.47 446.797 1072.93 445.784 1072.93 444.543C1072.93 443.53 1072.62 442.697 1072 442.044C1071.38 441.391 1070.59 440.884 1069.65 440.525C1068.73 440.133 1067.46 439.708 1065.83 439.251C1063.6 438.598 1061.79 437.961 1060.39 437.34C1059.01 436.687 1057.82 435.723 1056.81 434.449C1055.83 433.142 1055.34 431.411 1055.34 429.255C1055.34 427.23 1055.85 425.466 1056.86 423.963C1057.87 422.46 1059.29 421.317 1061.12 420.533C1062.95 419.716 1065.04 419.308 1067.39 419.308C1070.92 419.308 1073.78 420.174 1075.97 421.905C1078.19 423.604 1079.41 425.988 1079.64 429.059H1072.1C1072.03 427.883 1071.53 426.919 1070.58 426.168C1069.66 425.384 1068.44 424.992 1066.9 424.992C1065.56 424.992 1064.49 425.335 1063.67 426.021C1062.89 426.707 1062.49 427.703 1062.49 429.01C1062.49 429.925 1062.79 430.692 1063.38 431.313C1064 431.901 1064.75 432.391 1065.63 432.783C1066.54 433.142 1067.82 433.567 1069.45 434.057C1071.67 434.71 1073.49 435.364 1074.89 436.017C1076.29 436.67 1077.5 437.65 1078.52 438.957C1079.53 440.264 1080.04 441.979 1080.04 444.102C1080.04 445.931 1079.56 447.63 1078.61 449.198C1077.67 450.766 1076.28 452.024 1074.45 452.971C1072.62 453.886 1070.45 454.343 1067.93 454.343Z" fill="#468C74"/>
<path d="M363.095 445.464C307.137 445.964 287.652 421.468 283.155 409.969L270.76 420.968C281.033 436.555 300.539 455.706 351.604 456.963C400.367 458.163 451.862 429.133 471.514 414.469C454.027 424.634 407.862 445.064 363.095 445.464Z" fill="#39856B"/>
<path fill-rule="evenodd" clip-rule="evenodd" d="M293.148 275.489C292.748 261.091 304.306 253.492 310.135 251.492C299.077 245.037 285.469 262.394 274.405 276.504L274.404 276.506C273.471 277.695 272.557 278.861 271.664 279.988C271.219 280.55 270.713 281.181 270.154 281.88L270.153 281.881C256.282 299.22 209.273 357.977 223.2 419.968C234.792 471.561 286.986 489.125 311.634 491.458C214.207 486.958 210.71 418.468 215.206 372.475C218.804 335.68 242.353 298.152 253.677 283.987C229.695 296.486 198.219 343.979 196.221 385.473C194.222 426.967 205.214 473.96 253.677 493.458C302.141 512.955 353.602 506.956 411.559 481.459C457.924 461.062 483.172 425.301 490 409.969C450.53 440.465 409.56 455.463 365.593 462.962C321.626 470.461 265.669 447.464 258.174 412.469C252.178 384.473 262.671 362.81 268.666 355.477C261.672 368.475 256.675 396.471 265.669 412.469C267.128 415.064 268.771 417.949 270.76 420.968L283.155 409.969C278.659 398.471 283.655 379.474 296.645 368.475C309.636 357.477 351.104 318.982 357.1 312.983C361.896 308.184 360.098 300.652 358.599 297.486C352.104 309.484 343.11 316.483 326.623 312.983C310.135 309.484 293.648 293.486 293.148 275.489ZM249.181 428.467C233.592 393.672 245.683 358.31 253.677 344.979C210.709 409.97 242.075 456.963 302.641 477.96C351.093 494.757 414.427 465.628 440.038 448.964C350.105 494.457 268.666 471.961 249.181 428.467Z" fill="#222A41"/>
<path d="M312.134 258.491C307.637 261.657 299.643 270.389 303.64 279.988C308.636 291.986 325.623 309.984 344.11 302.985C358.898 297.386 374.254 279.321 380.083 270.989C376.086 272.156 365.894 271.489 357.1 259.491C356.6 264.157 353.902 274.489 347.107 278.488C338.614 283.488 316.63 277.488 312.134 258.491Z" fill="#39856B"/>
<path d="M340.612 227.495C340.779 230.328 342.511 235.994 348.107 235.994C346.774 237.994 343.21 241.094 339.613 237.494C335.116 232.995 338.614 227.495 340.612 227.495Z" fill="#39856B"/>
<path d="M334.117 241.494C327.788 240.494 315.631 242.493 317.629 258.491C320.128 278.488 347.107 274.989 345.608 268.99C337.115 264.99 322.925 253.892 334.117 241.494Z" fill="#222A41"/>
<path d="M340.197 258.575C338.186 256.563 338.092 253.332 339.983 251.207L364.679 223.455C367.027 220.816 371.153 220.818 373.499 223.459C375.529 225.744 375.478 229.201 373.382 231.425L347.906 258.462C345.828 260.667 342.338 260.718 340.197 258.575Z" fill="#222A41"/>
<path d="M345.64 221.48C343.916 223.481 343.975 226.458 345.776 228.39C347.839 230.601 351.35 230.581 353.388 228.346L372.007 207.925C374.01 205.728 373.932 202.344 371.831 200.241C369.543 197.952 365.791 198.091 363.678 200.543L345.64 221.48Z" fill="#222A41"/>
<path d="M377.296 248.914C375.006 247.052 374.739 243.653 376.711 241.457L395.849 220.14C397.869 217.889 401.365 217.796 403.503 219.935C405.495 221.928 405.569 225.134 403.67 227.216L384.369 248.386C382.524 250.41 379.421 250.641 377.296 248.914Z" fill="#222A41"/>
<path d="M386.078 252.492C384.08 254.658 378.684 257.991 373.088 253.992C367.492 249.992 369.757 244.993 371.589 242.993C367.425 243.993 360.098 248.493 364.095 258.491C369.091 270.989 392.074 265.99 386.078 252.492Z" fill="url(#paint0_linear_4_11)"/>
<defs>
<linearGradient id="paint0_linear_4_11" x1="343" y1="196" x2="343" y2="505" gradientUnits="userSpaceOnUse">
<stop offset="0.0865385" stop-color="#39856B"/>
<stop offset="0.216346" stop-color="#222A41"/>
</linearGradient>
</defs>
</svg>
